<svg xmlns="http://www.w3.org/2000/svg" height="48" width="48"><path d="M21.6 42.55q-.85 0-1.65-.375-.8-.375-1.4-.975L8.45 30.8l2-2.1q.65-.7 1.6-.825.95-.125 2 .075l5.6 1.4v-20q0-1.55 1-2.575 1-1.025 2.6-1.025 1.55 0 2.575 1.025Q26.85 7.8 26.85 9.35V20.7h1.6q.6 0 1.075.1t1.025.35l7.7 3.8q1.35.7 1.925 1.925t.375 2.725l-1.45 9.25q-.25 1.7-1.575 2.7-1.325 1-2.925 1Zm-.65-3.5H35l2.15-12.5-9.2-4.6H25.2v-11q0-.9-.55-1.45-.55-.55-1.45-.55-.9 0-1.425.55t-.525 1.45v20L13.5 29.3l-1.15 1.15Zm0 0-8.6-8.6 1.15-1.15 7.75 1.65v-20q0-.9.55-1.45.55-.55 1.45-.55.9 0 1.45.55.55.55.55 1.45v11H28l9.15 4.6L35 39.05Z"/></svg>