<svg xmlns="http://www.w3.org/2000/svg" height="48" width="48"><path d="M11.2 45.6q-2.75 0-4.6-1.875-1.85-1.875-1.85-4.575v-7.2h6.7V3.3l3.2 3.15 3.2-3.15L21 6.45l3.2-3.15 3.15 3.15 3.2-3.15 3.15 3.15 3.2-3.15 3.15 3.15L43.3 3.3v35.85q0 2.7-1.9 4.575T36.85 45.6Zm25.6-4.2q.9 0 1.525-.625.625-.625.625-1.575V8.8H15.8v25.65h19v4.7q0 1 .5 1.625t1.5.625ZM18.35 16.8v-3.2H29.9v3.2Zm0 6.8v-3.2H29.9v3.2Zm16.2-6.8q-.65 0-1.125-.5t-.475-1.1q0-.65.45-1.125t1.1-.475q.7 0 1.175.475.475.475.475 1.125 0 .6-.475 1.1-.475.5-1.125.5Zm0 6.55q-.65 0-1.125-.475t-.475-1.125q0-.6.45-1.1.45-.5 1.1-.5.7 0 1.175.5.475.5.475 1.1 0 .65-.475 1.125t-1.125.475Z"/></svg>