<svg xmlns="http://www.w3.org/2000/svg" height="48" width="48"><path d="M14.2 44.4q-1.55 0-2.625-1.075T10.5 40.7q0-1.5 1.1-2.6t2.6-1.1q1.55 0 2.625 1.1t1.075 2.65q0 1.5-1.075 2.575Q15.75 44.4 14.2 44.4Zm20.2 0q-1.55 0-2.625-1.075T30.7 40.7q0-1.5 1.1-2.6t2.6-1.1q1.55 0 2.625 1.1t1.075 2.65q0 1.5-1.075 2.575Q35.95 44.4 34.4 44.4Zm-24.05-37H39.4q1.45 0 2.25 1.375t.05 2.775L35.25 23.1q-.55 1-1.525 1.675-.975.675-2.175.675H16.5l-2.5 4.7h24.4V34H13.7q-2.35 0-3.375-1.625t.025-3.575l3.1-5.7L6 7.3H1.95V3.45H8.5Z"/></svg>