<svg xmlns="http://www.w3.org/2000/svg" height="48" width="48"><path d="M32.8 24.3q-2.45-2.25-4.7-4.325T24.175 15.9q-1.675-2-2.7-3.875Q20.45 10.15 20.45 8.35q0-2.9 1.925-4.825Q24.3 1.6 27.2 1.6q1.5 0 2.925.75Q31.55 3.1 32.8 4.4q1.25-1.3 2.675-2.05Q36.9 1.6 38.45 1.6q2.85 0 4.775 1.925Q45.15 5.45 45.15 8.35q0 1.8-1.025 3.675-1.025 1.875-2.7 3.875-1.675 2-3.925 4.075T32.8 24.3Zm-4.65 21.8-15.1-4.35V22.9h4.45l12.85 4.9q1.65.55 2.7 1.875Q34.1 31 34.1 33.35h-4q-2.5 0-3.625-.15t-2.525-.55l-3.5-1.2-.7 2.15 4.1 1.4q.85.35 2.375.5 1.525.15 2.925.15H39q3.45 0 4.625.95 1.175.95 1.175 2.85v1.6ZM.9 44.55V22.9h8.25v21.65Z"/></svg>