<svg xmlns="http://www.w3.org/2000/svg" height="48" width="48"><path d="M19.8 10.55h8.4v-4h-8.4ZM36 45.85q-4.15 0-7-2.85-2.85-2.85-2.85-7T29 29q2.85-2.85 7-2.85T43 29q2.85 2.85 2.85 7T43 43q-2.85 2.85-7 2.85Zm3.7-4.55 1.6-1.6-4.3-3.85v-6.5h-2.45v7.2Zm-14.4 1.8H7.2q-1.7 0-2.925-1.225Q3.05 40.65 3.05 38.9V14.7q0-1.7 1.225-2.925Q5.5 10.55 7.2 10.55h8.45v-4q0-1.75 1.225-2.975T19.8 2.35h8.4q1.7 0 2.925 1.225Q32.35 4.8 32.35 6.55v4h8.45q1.75 0 2.95 1.225 1.2 1.225 1.2 2.925v12.05q-1.85-1.7-4.15-2.65-2.3-.95-4.8-.95-5.35 0-9.1 3.75T23.15 36q0 1.95.55 3.75t1.6 3.35Z"/></svg>